<mxfile host="app.diagrams.net" modified="2024-02-20T07:59:38.754Z" agent="Mozilla/5.0 (Windows NT 10.0; Win64; x64) AppleWebKit/537.36 (KHTML, like Gecko) Chrome/121.0.0.0 Safari/537.36" etag="XNmcqgovMQP_FM2qIKGP" version="23.1.5" type="device">
  <diagram name="Страница — 1" id="v5HMX25pwHDaT3ubKCHh">
    <mxGraphModel dx="2670" dy="1976" grid="1" gridSize="10" guides="1" tooltips="1" connect="1" arrows="1" fold="1" page="1" pageScale="1" pageWidth="827" pageHeight="1169" math="0" shadow="0">
      <root>
        <mxCell id="0" />
        <mxCell id="1" parent="0" />
        <mxCell id="wE5sD2HvY42x6N_I0SD4-1" value="user" style="swimlane;fontStyle=0;childLayout=stackLayout;horizontal=1;startSize=26;fillColor=none;horizontalStack=0;resizeParent=1;resizeParentMax=0;resizeLast=0;collapsible=1;marginBottom=0;whiteSpace=wrap;html=1;" parent="1" vertex="1">
          <mxGeometry x="710" y="130" width="210" height="250" as="geometry" />
        </mxCell>
        <mxCell id="wE5sD2HvY42x6N_I0SD4-2" value="PK:&amp;nbsp; user_id : int&lt;br&gt;&lt;br&gt;Columns:&lt;br&gt;&lt;span style=&quot;white-space: pre;&quot;&gt;&#x9;&lt;/span&gt;user_name: string&lt;br&gt;&lt;span style=&quot;white-space: pre;&quot;&gt;&#x9;&lt;/span&gt;user_password: string&lt;br&gt;&lt;span style=&quot;white-space: pre;&quot;&gt;&#x9;&lt;/span&gt;user_email: string&lt;br&gt;&lt;span style=&quot;white-space: pre;&quot;&gt;&#x9;&lt;/span&gt;phone_number: string&lt;br&gt;&lt;span style=&quot;white-space: pre;&quot;&gt;&#x9;&lt;/span&gt;user_token: string" style="text;strokeColor=none;fillColor=none;align=left;verticalAlign=top;spacingLeft=4;spacingRight=4;overflow=hidden;rotatable=0;points=[[0,0.5],[1,0.5]];portConstraint=eastwest;whiteSpace=wrap;html=1;" parent="wE5sD2HvY42x6N_I0SD4-1" vertex="1">
          <mxGeometry y="26" width="210" height="224" as="geometry" />
        </mxCell>
        <mxCell id="wE5sD2HvY42x6N_I0SD4-9" value="snapshot" style="swimlane;fontStyle=0;childLayout=stackLayout;horizontal=1;startSize=26;fillColor=none;horizontalStack=0;resizeParent=1;resizeParentMax=0;resizeLast=0;collapsible=1;marginBottom=0;whiteSpace=wrap;html=1;" parent="1" vertex="1">
          <mxGeometry x="1160" y="130" width="210" height="200" as="geometry" />
        </mxCell>
        <mxCell id="wE5sD2HvY42x6N_I0SD4-13" value="group" style="swimlane;fontStyle=0;childLayout=stackLayout;horizontal=1;startSize=26;fillColor=none;horizontalStack=0;resizeParent=1;resizeParentMax=0;resizeLast=0;collapsible=1;marginBottom=0;whiteSpace=wrap;html=1;" parent="1" vertex="1">
          <mxGeometry x="-60" y="-20" width="160" height="200" as="geometry" />
        </mxCell>
        <mxCell id="wE5sD2HvY42x6N_I0SD4-14" value="PK:&amp;nbsp; group_id : int&lt;br&gt;&lt;br&gt;Columns:&lt;br&gt;&lt;span style=&quot;white-space: pre;&quot;&gt;&#x9;&lt;/span&gt;group_name: string&lt;br&gt;&lt;span style=&quot;white-space: pre;&quot;&gt;&#x9;&lt;/span&gt;group_type: string" style="text;strokeColor=none;fillColor=none;align=left;verticalAlign=top;spacingLeft=4;spacingRight=4;overflow=hidden;rotatable=0;points=[[0,0.5],[1,0.5]];portConstraint=eastwest;whiteSpace=wrap;html=1;" parent="wE5sD2HvY42x6N_I0SD4-13" vertex="1">
          <mxGeometry y="26" width="160" height="174" as="geometry" />
        </mxCell>
        <mxCell id="wE5sD2HvY42x6N_I0SD4-15" value="event" style="swimlane;fontStyle=0;childLayout=stackLayout;horizontal=1;startSize=26;fillColor=none;horizontalStack=0;resizeParent=1;resizeParentMax=0;resizeLast=0;collapsible=1;marginBottom=0;whiteSpace=wrap;html=1;" parent="1" vertex="1">
          <mxGeometry x="-60" y="340" width="180" height="200" as="geometry" />
        </mxCell>
        <mxCell id="wE5sD2HvY42x6N_I0SD4-16" value="PK:&amp;nbsp; event_id : int&lt;br&gt;&lt;br&gt;Columns:&lt;br&gt;&lt;span style=&quot;white-space: pre;&quot;&gt;&#x9;&lt;/span&gt;caption: string&lt;br&gt;&lt;span style=&quot;white-space: pre;&quot;&gt;&#x9;&lt;/span&gt;description: string&lt;br&gt;&lt;span style=&quot;white-space: pre;&quot;&gt;&#x9;&lt;/span&gt;event_type: string&lt;br&gt;&lt;span style=&quot;white-space: pre;&quot;&gt;&#x9;&lt;/span&gt;scheduled_start: datetime&lt;br&gt;&lt;span style=&quot;white-space: pre;&quot;&gt;&#x9;&lt;/span&gt;duration: time" style="text;strokeColor=none;fillColor=none;align=left;verticalAlign=top;spacingLeft=4;spacingRight=4;overflow=hidden;rotatable=0;points=[[0,0.5],[1,0.5]];portConstraint=eastwest;whiteSpace=wrap;html=1;" parent="wE5sD2HvY42x6N_I0SD4-15" vertex="1">
          <mxGeometry y="26" width="180" height="174" as="geometry" />
        </mxCell>
        <mxCell id="wE5sD2HvY42x6N_I0SD4-17" value="users_groups" style="swimlane;fontStyle=0;childLayout=stackLayout;horizontal=1;startSize=26;fillColor=none;horizontalStack=0;resizeParent=1;resizeParentMax=0;resizeLast=0;collapsible=1;marginBottom=0;whiteSpace=wrap;html=1;" parent="1" vertex="1">
          <mxGeometry x="253.5" width="160" height="200" as="geometry" />
        </mxCell>
        <mxCell id="wE5sD2HvY42x6N_I0SD4-18" value="PK: users_groups_pk : int&lt;br&gt;&lt;br&gt;FK: user_id_fk: int&lt;br&gt;FK: group_id_fk: int" style="text;strokeColor=none;fillColor=none;align=left;verticalAlign=top;spacingLeft=4;spacingRight=4;overflow=hidden;rotatable=0;points=[[0,0.5],[1,0.5]];portConstraint=eastwest;whiteSpace=wrap;html=1;" parent="wE5sD2HvY42x6N_I0SD4-17" vertex="1">
          <mxGeometry y="26" width="160" height="174" as="geometry" />
        </mxCell>
        <mxCell id="wE5sD2HvY42x6N_I0SD4-19" value="users_events" style="swimlane;fontStyle=0;childLayout=stackLayout;horizontal=1;startSize=26;fillColor=none;horizontalStack=0;resizeParent=1;resizeParentMax=0;resizeLast=0;collapsible=1;marginBottom=0;whiteSpace=wrap;html=1;" parent="1" vertex="1">
          <mxGeometry x="260" y="300" width="160" height="200" as="geometry" />
        </mxCell>
        <mxCell id="wE5sD2HvY42x6N_I0SD4-20" value="PK:&amp;nbsp; users_events_pk : int&lt;br&gt;&lt;br&gt;FK:&amp;nbsp; user_id_fk: int&lt;br&gt;FK:&amp;nbsp; event_id_fk: int" style="text;strokeColor=none;fillColor=none;align=left;verticalAlign=top;spacingLeft=4;spacingRight=4;overflow=hidden;rotatable=0;points=[[0,0.5],[1,0.5]];portConstraint=eastwest;whiteSpace=wrap;html=1;" parent="wE5sD2HvY42x6N_I0SD4-19" vertex="1">
          <mxGeometry y="26" width="160" height="174" as="geometry" />
        </mxCell>
        <mxCell id="wE5sD2HvY42x6N_I0SD4-5" value="task" style="swimlane;fontStyle=0;childLayout=stackLayout;horizontal=1;startSize=26;fillColor=none;horizontalStack=0;resizeParent=1;resizeParentMax=0;resizeLast=0;collapsible=1;marginBottom=0;whiteSpace=wrap;html=1;" parent="1" vertex="1">
          <mxGeometry x="470" y="560" width="180" height="200" as="geometry" />
        </mxCell>
        <mxCell id="wE5sD2HvY42x6N_I0SD4-6" value="PK:&amp;nbsp; task_id : int&lt;br&gt;&lt;br&gt;Columns:&lt;br&gt;&lt;span style=&quot;white-space: pre;&quot;&gt;&#x9;&lt;/span&gt;task_caption: string&lt;br&gt;&lt;span style=&quot;white-space: pre;&quot;&gt;&#x9;&lt;/span&gt;description: string&lt;br&gt;&lt;span style=&quot;white-space: pre;&quot;&gt;&#x9;&lt;/span&gt;task_type: string&lt;br&gt;&lt;br&gt;FK:&amp;nbsp; reporter_id_fk: int" style="text;strokeColor=none;fillColor=none;align=left;verticalAlign=top;spacingLeft=4;spacingRight=4;overflow=hidden;rotatable=0;points=[[0,0.5],[1,0.5]];portConstraint=eastwest;whiteSpace=wrap;html=1;" parent="wE5sD2HvY42x6N_I0SD4-5" vertex="1">
          <mxGeometry y="26" width="180" height="174" as="geometry" />
        </mxCell>
        <mxCell id="wE5sD2HvY42x6N_I0SD4-25" value="" style="edgeStyle=entityRelationEdgeStyle;fontSize=12;html=1;endArrow=ERzeroToMany;endFill=1;rounded=0;exitX=-0.014;exitY=0.074;exitDx=0;exitDy=0;exitPerimeter=0;entryX=0.978;entryY=0.253;entryDx=0;entryDy=0;entryPerimeter=0;" parent="1" source="wE5sD2HvY42x6N_I0SD4-2" target="wE5sD2HvY42x6N_I0SD4-18" edge="1">
          <mxGeometry width="100" height="100" relative="1" as="geometry">
            <mxPoint x="380" y="530" as="sourcePoint" />
            <mxPoint x="480" y="430" as="targetPoint" />
          </mxGeometry>
        </mxCell>
        <mxCell id="wE5sD2HvY42x6N_I0SD4-26" value="" style="edgeStyle=entityRelationEdgeStyle;fontSize=12;html=1;endArrow=ERzeroToMany;endFill=1;rounded=0;exitX=1.019;exitY=0.077;exitDx=0;exitDy=0;exitPerimeter=0;entryX=0.009;entryY=0.36;entryDx=0;entryDy=0;entryPerimeter=0;" parent="1" source="wE5sD2HvY42x6N_I0SD4-14" target="wE5sD2HvY42x6N_I0SD4-18" edge="1">
          <mxGeometry width="100" height="100" relative="1" as="geometry">
            <mxPoint x="717" y="183" as="sourcePoint" />
            <mxPoint x="420" y="80" as="targetPoint" />
          </mxGeometry>
        </mxCell>
        <mxCell id="wE5sD2HvY42x6N_I0SD4-27" value="" style="edgeStyle=entityRelationEdgeStyle;fontSize=12;html=1;endArrow=ERzeroToMany;endFill=1;rounded=0;exitX=1.031;exitY=0.069;exitDx=0;exitDy=0;exitPerimeter=0;entryX=-0.04;entryY=0.337;entryDx=0;entryDy=0;entryPerimeter=0;" parent="1" source="wE5sD2HvY42x6N_I0SD4-16" target="wE5sD2HvY42x6N_I0SD4-20" edge="1">
          <mxGeometry width="100" height="100" relative="1" as="geometry">
            <mxPoint x="113" y="29" as="sourcePoint" />
            <mxPoint x="265" y="99" as="targetPoint" />
          </mxGeometry>
        </mxCell>
        <mxCell id="wE5sD2HvY42x6N_I0SD4-28" value="" style="edgeStyle=entityRelationEdgeStyle;fontSize=12;html=1;endArrow=ERzeroToMany;endFill=1;rounded=0;entryX=0.994;entryY=0.276;entryDx=0;entryDy=0;entryPerimeter=0;exitX=-0.027;exitY=0.122;exitDx=0;exitDy=0;exitPerimeter=0;" parent="1" source="wE5sD2HvY42x6N_I0SD4-2" target="wE5sD2HvY42x6N_I0SD4-20" edge="1">
          <mxGeometry width="100" height="100" relative="1" as="geometry">
            <mxPoint x="680" y="240" as="sourcePoint" />
            <mxPoint x="264" y="395" as="targetPoint" />
          </mxGeometry>
        </mxCell>
        <mxCell id="wE5sD2HvY42x6N_I0SD4-29" value="" style="edgeStyle=entityRelationEdgeStyle;fontSize=12;html=1;endArrow=ERoneToMany;rounded=0;entryX=0.998;entryY=0.667;entryDx=0;entryDy=0;entryPerimeter=0;" parent="1" target="wE5sD2HvY42x6N_I0SD4-6" edge="1">
          <mxGeometry width="100" height="100" relative="1" as="geometry">
            <mxPoint x="920" y="170" as="sourcePoint" />
            <mxPoint x="480" y="430" as="targetPoint" />
            <Array as="points">
              <mxPoint x="900" y="450" />
            </Array>
          </mxGeometry>
        </mxCell>
        <mxCell id="wE5sD2HvY42x6N_I0SD4-30" value="" style="edgeStyle=entityRelationEdgeStyle;fontSize=12;html=1;endArrow=ERoneToMany;rounded=0;entryX=0.01;entryY=0.139;entryDx=0;entryDy=0;entryPerimeter=0;" parent="1" target="wE5sD2HvY42x6N_I0SD4-10" edge="1">
          <mxGeometry width="100" height="100" relative="1" as="geometry">
            <mxPoint x="930" y="180" as="sourcePoint" />
            <mxPoint x="660" y="712" as="targetPoint" />
            <Array as="points">
              <mxPoint x="910" y="460" />
            </Array>
          </mxGeometry>
        </mxCell>
        <mxCell id="wE5sD2HvY42x6N_I0SD4-10" value="PK:&amp;nbsp; reporter_id : int&lt;br&gt;&lt;br&gt;Columns:&lt;br&gt;&lt;span style=&quot;white-space: pre;&quot;&gt;&#x9;&lt;/span&gt;caption: string&lt;br&gt;&lt;span style=&quot;white-space: pre;&quot;&gt;&#x9;&lt;/span&gt;description: string&lt;br&gt;&lt;span style=&quot;white-space: pre;&quot;&gt;&#x9;&lt;/span&gt;begin_moment: datetime&lt;br&gt;&lt;span style=&quot;white-space: pre;&quot;&gt;&#x9;&lt;/span&gt;end_moment: datetime&lt;br&gt;&lt;br&gt;FK:&amp;nbsp; user_id_fk: int&lt;div&gt;&lt;br/&gt;&lt;/div&gt;" style="text;strokeColor=none;fillColor=none;align=left;verticalAlign=top;spacingLeft=4;spacingRight=4;overflow=hidden;rotatable=0;points=[[0,0.5],[1,0.5]];portConstraint=eastwest;whiteSpace=wrap;html=1;" parent="1" vertex="1">
          <mxGeometry x="1160" y="166" width="210" height="174" as="geometry" />
        </mxCell>
      </root>
    </mxGraphModel>
  </diagram>
</mxfile>
